<svg xmlns="http://www.w3.org/2000/svg" data-name="Logo Uptjaa" width="516.026" height="600"><rect id="backgroundrect" width="100%" height="100%" x="0" y="0" fill="none" stroke="none" style="" class="selected"/>
  <defs>
    <style>
      .cls-1 {
        fill: #008033;
      }

      .cls-2 {
        fill: #fc0;
      }

      .cls-3 {
        fill: #007fff;
      }
    </style>
  </defs>
  
<g class="currentLayer" style=""><title>Layer 1</title><g id="Logo">
    <g id="Logo-2" data-name="Logo">
      <path id="Verde" class="cls-1" d="M516.026,64.66177c-126.35953,82.9742,1.16607,255.01322-111.46032,356.014-74.15832,70.92577-195.74875,79.79365-284.66136,32.79332-11.37351-5.03468-31.57753-20.069-31.56739-20.05884C-6.79507,366.165-27.36767,214.62042,59.83205,131.70482c-83.68,185.072,119.555,375.14359,294.04451,275.17484,35.0652-21.018,57.93665-59.784,57.357-100.93413C414.86392,201.57812,387.54557,99.6394,516.026,64.66177Z"/>
      <path id="Amarillo" class="cls-2" d="M61.53675,52.52589A86.96778,86.96778,0,0,0,37.18509,30.98471c52.586,5.641,85.53316,70.83869,72.8356,118.705C104.3146,171.20011,94.3293,192.259,90.25122,214.6469c-3.81412,20.93882-2.14183,42.47386,2.33861,63.18237A207.62133,207.62133,0,0,0,148.499,380.37718c8.841,8.81142,27.39018,22.23755,37.58989,28.17027,6.5661,3.81921,26.64657,13.587,26.64656,13.587-9.50883-1.90177-13.57759-2.65973-22.77442-5.6644-8.917-2.91325-21.967-7.82086-30.31977-12.15242a202.19862,202.19862,0,0,1-45.57795-32.52913A216.49987,216.49987,0,0,1,55.37482,276.472c-13.69971-46.24635-9.27847-92.79573,9.47683-136.74862C77.09542,111.03018,82.10053,78.96,61.53675,52.52589Z"/>
      <path id="Azul" class="cls-3" d="M180.49392,374.87643c18.872,28.40528,50.13709,40.65919,81.18381,49.64417C145.4399,416.64613,61.84921,283.77013,109.23644,175.6534,147.794,100.6546,83.3745,9.677,0,20.09059,88.44972-36.30147,219.9128,33.13493,216.661,139.93523,220.72519,232.15633,111.18291,260.69574,180.49392,374.87643Z"/>
    </g>
    <g id="Uptjaa">
      <path id="A" class="cls-3" d="M460.12292,512.87571H421.62614a3.04816,3.04816,0,0,0-3.03922,3.03922V600h21.09219V568.74666h17.58694V600h21.09219V531.111A18.23678,18.23678,0,0,0,460.12292,512.87571Zm-20.44381,43.56215V524.45513h8.46928a9.11766,9.11766,0,0,1,9.11766,9.11766v22.86507Z"/>
      <path id="A-2" data-name="A" class="cls-3" d="M380.09014,512.87571H341.59337a3.04816,3.04816,0,0,0-3.03922,3.03922V600h21.09219V568.74666h17.58693V600h21.09219V531.111A18.23678,18.23678,0,0,0,380.09014,512.87571Zm-20.4438,43.56215V524.45513h8.46927a9.11765,9.11765,0,0,1,9.11766,9.11766v22.86507Z"/>
      <path id="J" class="cls-3" d="M299.04429,600H276.9188a18.2353,18.2353,0,0,1-18.23531-18.23532V568.01727a3.03923,3.03923,0,0,1,3.03922-3.03922H275.622a3.03922,3.03922,0,0,1,3.03922,3.03924l-.00007,10.35652a8.96564,8.96564,0,0,0,5.804,8.49584,11.64868,11.64868,0,0,0,7.91086-.00467,8.97308,8.97308,0,0,0,5.81734-8.50145l0-47.83a3.03922,3.03922,0,0,0-3.03922-3.03922H269.68545v-.43562a14.183,14.183,0,0,1,14.183-14.183h31.385a3.03922,3.03922,0,0,1,3.03922,3.03922v64.83668A19.24839,19.24839,0,0,1,299.04429,600Z"/>
      <path id="T" class="cls-3" d="M255.456,512.87571v.43561a14.183,14.183,0,0,1-14.183,14.183h-7.501V600H213.36869V527.49435h-21.684v-.43562a14.183,14.183,0,0,1,14.183-14.183Z"/>
      <path id="P" class="cls-3" d="M159.2402,512.87571H126.82186a9.11839,9.11839,0,0,0-9.11766,9.11766V600h21.153V568.74666h20.383a18.23678,18.23678,0,0,0,18.23532-18.23532V531.111A18.23678,18.23678,0,0,0,159.2402,512.87571Zm-3.66732,39.80362a6.08326,6.08326,0,0,1-6.07844,6.07844H138.85718V523.37113h10.63726a6.08326,6.08326,0,0,1,6.07844,6.07844Z"/>
      <path id="U" class="cls-3" d="M97.44274,514.90186V600L55.3801,600a17.50072,17.50072,0,0,1-14.6745-8.29528c-3.06322-4.81652-3.02924-9.78515-3.03417-15.25919q-.01238-13.72823,0-27.4565V514.90186a2.02614,2.02614,0,0,1,2.02614-2.02615H57.55806a2.02614,2.02614,0,0,1,2.02614,2.02615v64.1883s-.32851,9.36078,8.74283,9.36078c8.94689,0,8.18565-9.36078,8.18565-9.36078v-64.1883a2.02614,2.02614,0,0,1,2.02614-2.02615H95.41659A2.02615,2.02615,0,0,1,97.44274,514.90186Z"/>
    </g>
  </g></g></svg>